<svg width="180" height="175" viewBox="0 0 180 175" fill="none" xmlns="http://www.w3.org/2000/svg">
<path d="M0 40H77.8159L72.9422 65.9928H40.6137V83.8628H70.9928L66.1191 109.856H40.6137V130.975H78.9531L74.0794 156.968H8.93502V62.2563L0 40Z" fill="#0083F0"/>
<path d="M135.65 145.921C139.765 145.921 142.852 145.325 144.91 144.134C146.967 142.942 147.996 140.993 147.996 138.285C147.996 136.444 147.509 134.982 146.534 133.899C145.56 132.816 143.827 131.733 141.336 130.65L124.116 122.69C117.726 119.765 112.798 115.866 109.332 110.993C105.866 106.119 104.134 99.0253 104.134 89.7112C104.134 77.7978 107.22 68.917 113.394 63.0686C119.675 57.1119 130.018 54.0794 144.422 53.9711C150.379 53.9711 155.794 54.2419 160.668 54.7834C165.542 55.3249 169.44 55.9206 172.365 56.5704C175.289 57.1119 176.751 57.3827 176.751 57.3827L173.502 83.5379C173.502 83.5379 172.148 83.3755 169.44 83.0505C166.841 82.7256 163.592 82.4549 159.693 82.2383C155.794 81.9134 152.004 81.7509 148.321 81.7509C144.422 81.7509 141.444 82.3466 139.386 83.5379C137.437 84.6209 136.462 86.7329 136.462 89.8736C136.462 91.6065 137.22 93.0686 138.736 94.2599C140.253 95.343 142.365 96.4801 145.072 97.6715L158.881 103.682C166.245 106.931 171.606 110.993 174.964 115.866C178.321 120.632 180 127.455 180 136.336C180 148.357 176.859 157.617 170.578 164.116C164.296 170.614 153.953 173.917 139.549 174.025C132.401 174.025 125.74 173.538 119.567 172.563C113.393 171.697 107.924 170.668 103.159 169.477L106.408 143.321C106.408 143.321 107.708 143.538 110.307 143.971C113.014 144.404 116.588 144.838 121.029 145.271C125.469 145.704 130.343 145.921 135.65 145.921Z" fill="#0083F0"/>
<path d="M160.148 24.4179H162.068C163.521 24.4179 164.816 24.1967 165.952 23.7546C167.087 23.3125 168.041 22.7045 168.813 21.9308C169.608 21.157 170.21 20.2395 170.608 19.1894C171.039 18.1061 171.244 16.9344 171.244 15.6633C171.244 14.392 171.028 13.2536 170.608 12.1703C170.176 11.0869 169.574 10.1584 168.768 9.38469C167.996 8.61095 167.042 8.00295 165.906 7.56086C164.77 7.1186 163.487 6.89756 162.068 6.89756H160.148V24.4179ZM151.789 0H164.169C166.36 0 168.405 0.431132 170.313 1.28226C172.243 2.14452 173.924 3.29409 175.344 4.73095C176.797 6.14591 177.933 7.804 178.762 9.71634C179.591 11.5955 180 13.5741 180 15.6522C180 17.7302 179.591 19.6758 178.762 21.588C177.967 23.4671 176.843 25.1363 175.389 26.5734C173.969 28.0102 172.289 29.1598 170.358 30.0221C168.45 30.8843 166.394 31.3043 164.169 31.3043H151.789V0Z" fill="#0083F0"/>
<path d="M140 12.4579C140 11.8045 140.124 11.1946 140.382 10.6174C140.641 10.0186 140.989 9.4958 141.439 9.06015C141.889 8.62467 142.406 8.28711 143.002 8.03667C143.621 7.78606 144.273 7.66641 144.947 7.66641C145.622 7.66641 146.252 7.78606 146.848 8.03667C147.466 8.28711 148.006 8.62467 148.455 9.06015C148.905 9.4958 149.254 10.0186 149.513 10.6174C149.771 11.1946 149.895 11.8045 149.895 12.4579C149.895 13.1113 149.771 13.7428 149.513 14.3417C149.254 14.9189 148.905 15.4198 148.455 15.8555C148.006 16.2909 147.466 16.6287 146.848 16.8791C146.252 17.1295 145.622 17.2494 144.947 17.2494C144.273 17.2494 143.621 17.1295 143.002 16.8791C142.406 16.6287 141.889 16.2909 141.439 15.8555C140.989 15.4198 140.641 14.9189 140.382 14.3417C140.124 13.7428 140 13.1113 140 12.4579Z" fill="#0083F0"/>
<path d="M140 26.4064C140 25.7384 140.124 25.1151 140.382 24.525C140.641 23.9128 140.989 23.3786 141.439 22.9332C141.889 22.488 142.406 22.1429 143.002 21.8869C143.621 21.6307 144.273 21.5083 144.947 21.5083C145.622 21.5083 146.252 21.6307 146.848 21.8869C147.466 22.1429 148.006 22.488 148.455 22.9332C148.905 23.3786 149.254 23.9128 149.513 24.525C149.771 25.1151 149.895 25.7384 149.895 26.4064C149.895 27.0742 149.771 27.72 149.513 28.3321C149.254 28.922 148.905 29.4342 148.455 29.8794C148.006 30.3246 147.466 30.6699 146.848 30.9259C146.252 31.1819 145.622 31.3043 144.947 31.3043C144.273 31.3043 143.621 31.1819 143.002 30.9259C142.406 30.6699 141.889 30.3246 141.439 29.8794C140.989 29.4342 140.641 28.922 140.382 28.3321C140.124 27.72 140 27.0742 140 26.4064Z" fill="#0083F0"/>
</svg>
