<svg width="24" height="24" viewBox="0 0 24 24" fill="none" xmlns="http://www.w3.org/2000/svg">
<path d="M11.25 15H5.25V12.375C5.25 12.5821 5.41789 12.75 5.625 12.75H10.875C11.0821 12.75 11.25 12.5821 11.25 12.375V11.8125C11.25 11.1032 10.7015 10.6879 9.98496 10.5113C9.95344 10.5035 9.9235 10.4957 9.89244 10.4862C9.55612 10.384 7.4271 9.74753 6.5625 9.75001C5.83763 9.75001 5.25 10.3376 5.25 11.0625V9C5.25 7.75736 4.24264 6.75 3 6.75C1.75736 6.75 0.75 7.75736 0.75 9V20.25C0.75 21.0784 1.42157 21.75 2.25 21.75H3V22.875C3 23.0821 3.16789 23.25 3.375 23.25H4.875C5.08211 23.25 5.25 23.0821 5.25 22.875V21.75H18.75V22.875C18.75 23.0821 18.9179 23.25 19.125 23.25H20.625C20.8321 23.25 21 23.0821 21 22.875V21.75H21.75C22.5784 21.75 23.25 21.0784 23.25 20.25V14.6222C23.25 13.1724 22.0747 11.9972 20.625 11.9972H12.375C11.7537 11.9972 11.25 12.5008 11.25 13.1222V15ZM3 8.25C3.41421 8.25 3.75 8.58579 3.75 9V16.5H11.25V16.875C11.25 17.0821 11.4179 17.25 11.625 17.25H21.75V20.25H2.25V9C2.25 8.58579 2.58579 8.25 3 8.25Z" fill="#212121"/>
</svg>
